<?xml version="1.0" standalone="no"?>
<!DOCTYPE svg PUBLIC "-//W3C//DTD SVG 20010904//EN"
 "http://www.w3.org/TR/2001/REC-SVG-20010904/DTD/svg10.dtd">
<svg version="1.0" xmlns="http://www.w3.org/2000/svg"
 width="512.000000pt" height="512.000000pt" viewBox="0 0 512.000000 512.000000"
 preserveAspectRatio="xMidYMid meet">

<g transform="translate(0.000000,512.000000) scale(0.100000,-0.100000)"
fill="#000000" stroke="none">
<path d="M1785 3334 c-141 -19 -193 -30 -281 -59 -195 -64 -341 -152 -479
-290 -134 -133 -235 -296 -290 -465 -22 -68 -27 -74 -95 -95 -98 -31 -233
-103 -315 -168 -182 -144 -292 -346 -314 -576 -24 -255 60 -498 236 -682 90
-94 184 -159 296 -204 166 -67 111 -65 1415 -65 l1180 0 85 25 c404 117 667
376 759 750 28 113 29 308 4 430 -42 194 -131 360 -271 500 -180 180 -354 256
-599 259 -115 2 -120 2 -134 26 -75 119 -120 177 -197 255 -174 173 -383 286
-626 335 -98 20 -306 34 -374 24z m291 -179 c127 -22 210 -49 314 -101 163
-82 306 -206 401 -348 l40 -59 -80 -37 c-136 -65 -263 -163 -362 -282 -35 -42
-49 -68 -49 -89 0 -42 39 -79 84 -79 31 0 45 10 118 86 100 104 179 162 290
213 361 168 726 22 913 -364 144 -296 117 -621 -70 -865 -104 -135 -268 -240
-475 -304 l-85 -27 -1195 3 -1195 3 -73 27 c-116 43 -181 85 -272 177 -128
129 -192 269 -206 451 -17 225 100 462 293 594 86 58 206 111 306 133 69 16
79 21 83 43 28 129 93 286 163 388 225 332 650 507 1057 437z"/>
</g>
</svg>
